<?xml version="1.0" standalone="no"?>
<!DOCTYPE svg PUBLIC "-//W3C//DTD SVG 20010904//EN"
 "http://www.w3.org/TR/2001/REC-SVG-20010904/DTD/svg10.dtd">
<svg version="1.0" xmlns="http://www.w3.org/2000/svg"
 width="700.000000pt" height="700.000000pt" viewBox="0 0 700.000000 700.000000"
 preserveAspectRatio="xMidYMid meet">
<metadata>
Created by potrace 1.11, written by Peter Selinger 2001-2013
</metadata>
<g transform="translate(0.000000,700.000000) scale(0.100000,-0.100000)"
fill="#000000" stroke="none">
<path d="M726 6615 c-11 -6 -25 -20 -31 -31 -16 -33 -13 -558 4 -578 17 -20
74 -36 106 -30 l25 4 0 -218 0 -219 -54 2 c-72 2 -162 -18 -222 -48 -101 -51
-185 -167 -204 -279 -5 -29 -8 -761 -8 -1626 l0 -1574 -55 -49 c-112 -100
-223 -287 -263 -444 -19 -75 -25 -258 -11 -353 15 -110 73 -249 146 -355 142
-205 345 -342 611 -412 111 -29 241 -31 2375 -30 2072 1 2162 2 2215 19 77 26
153 79 194 134 81 112 91 194 50 415 -1 9 -2 17 0 17 1 0 27 -4 57 -10 30 -5
68 -12 84 -15 17 -2 41 -7 55 -10 14 -3 63 -12 110 -20 47 -8 96 -17 110 -20
14 -3 77 -14 140 -25 179 -31 341 -60 382 -69 100 -23 151 8 167 99 23 131 24
158 1 189 -19 28 -34 37 -77 46 -10 2 -49 11 -88 20 -38 9 -77 18 -85 20 -8 2
-33 8 -55 13 -22 6 -51 13 -65 16 -33 6 -107 22 -210 47 -47 12 -96 23 -109
25 -47 9 -143 33 -147 36 -2 2 101 23 229 46 128 23 244 45 258 47 13 3 38 7
54 10 17 3 41 7 55 10 14 3 39 7 55 10 17 3 41 7 55 10 48 10 255 47 285 52
100 14 137 49 130 122 -8 89 -29 171 -47 191 -10 11 -30 23 -45 26 -21 6 -225
-24 -349 -50 -12 -2 -37 -7 -55 -10 -19 -3 -43 -7 -54 -10 -11 -2 -40 -7 -65
-12 -25 -4 -47 -8 -50 -9 -3 -1 -27 -5 -55 -10 -27 -5 -52 -10 -55 -10 -3 -1
-25 -5 -50 -9 -25 -5 -54 -10 -65 -12 -10 -2 -37 -6 -59 -10 -22 -3 -44 -8
-48 -10 -4 -3 -24 -7 -45 -9 -21 -2 -60 -9 -87 -15 -27 -6 -50 -9 -52 -7 -2 2
108 77 244 168 136 90 251 168 257 172 5 4 48 33 95 65 128 86 132 108 48 253
-63 110 -98 119 -210 55 -43 -24 -78 -42 -78 -39 0 2 9 39 19 81 41 163 63
341 65 528 1 109 -11 124 -100 124 l-63 0 39 73 c54 100 82 209 83 321 0 103
-4 136 -30 221 l-19 59 -71 23 c-110 34 -276 37 -376 7 -16 -5 -18 -2 -12 17
15 45 7 158 -15 223 -63 191 -228 309 -430 309 -82 -1 -180 -26 -217 -56 -17
-12 -17 -11 7 55 28 81 39 160 36 268 -2 87 -25 210 -47 252 -11 20 -119 56
-194 65 -146 17 -284 -1 -408 -56 -57 -25 -176 -101 -196 -124 -18 -22 -31
-21 -31 2 0 35 -42 155 -81 235 -44 88 -125 202 -171 241 -63 53 -59 55 -394
-280 l-304 -305 -47 51 c-31 33 -73 63 -122 87 -73 35 -80 37 -181 37 -95 0
-111 -3 -170 -30 -72 -33 -95 -50 -153 -112 l-39 -42 -37 23 c-85 54 -219 73
-321 47 -49 -13 -141 -58 -152 -75 -4 -6 -8 120 -9 279 -1 362 -1 371 -46 463
-67 138 -217 220 -400 217 l-43 0 0 215 0 216 51 1 c38 0 57 6 72 22 21 21 22
29 22 301 0 277 0 280 -23 302 l-22 23 -446 0 c-291 0 -454 -3 -468 -10z"/>
</g>
</svg>
